<?xml version="1.0" encoding="UTF-8" standalone="no"?>
<svg width="103px" height="143px" viewBox="0 0 103 143" version="1.1" xmlns="http://www.w3.org/2000/svg" xmlns:xlink="http://www.w3.org/1999/xlink" xmlns:sketch="http://www.bohemiancoding.com/sketch/ns">
    <!-- Generator: Sketch 3.4.4 (17249) - http://www.bohemiancoding.com/sketch -->
    <title>Artboard 1</title>
    <desc>Created with Sketch.</desc>
    <defs></defs>
    <g id="Page-1" stroke="none" stroke-width="1" fill="none" fill-rule="evenodd" sketch:type="MSPage">
        <g id="Artboard-1" sketch:type="MSArtboardGroup" fill="#D50000">
            <path d="M46.8183628,139.109977 L38,139.14338 L41.3082235,136.840504 L48.0463825,136.867768 L48.9830707,135 L55.1651772,135.070642 L56.0989478,136.900293 L62.8606865,136.927557 L66.1003777,139.036725 L57.3174007,139.070128 L58.4248595,140.876977 L45.6961945,141 L46.8183628,139.109977 Z" id="Path" sketch:type="MSShapeGroup"></path>
            <path d="M74.1848292,33.9728791 C75.7063025,33.9728791 77.1970391,33.5757687 78.5033546,32.7968213 L90.9056676,25.5113725 L90.9056676,22.105387 L76.9511444,30.1850567 C75.8907236,30.7959958 74.691987,31.1167388 73.477882,31.1014653 L55.005044,30.8876366 C54.0829389,30.5516201 53.3452549,30.3377914 53.0686234,30.2308771 C47.2900983,28.947905 42.7717835,29.4519297 39.6981,30.2766975 C37.3928374,30.8876366 34.9338905,30.6585345 32.7515752,29.6657584 L16,22.0290196 L16,52.5454279 L17.7366312,53.4923835 C20.3031569,54.88227 22.3471565,57.0358303 23.6227352,59.647595 L22.6391564,60.4418158 C19.9957886,62.3510005 19.4271571,66.0471821 21.1637883,68.6589468 C22.1319986,69.9266454 23.4997878,70.7361397 25.0673664,71.0110623 C25.2517874,71.0263358 25.5284189,71.0416093 25.7282084,71.0416093 C26.2968398,71.0721562 26.8501029,71.0110623 27.3265238,70.9346949 C27.3572606,72.248214 27.664629,73.3784513 28.4484183,74.4475948 C29.4934707,75.8985751 31.1532598,76.5553347 32.9359962,76.6469755 C33.3970488,76.6775225 33.8734697,76.692796 34.2423117,76.7233429 C34.0732591,78.1132294 34.472838,79.5336628 35.3488378,80.6944471 C36.3170481,81.9621458 37.6848373,82.7716401 39.2524159,83.0465627 C39.4368369,83.0618361 39.7134684,83.0771096 39.9132579,83.0771096 C41.3117839,83.153477 42.6488362,82.7563666 43.7246254,81.9774192 L44.3086253,81.5344884 C44.4469411,82.3745297 44.6928357,83.1382035 45.2153619,83.82551 C45.9991512,84.8946535 47.1825194,85.6125069 48.5810454,85.872156 C48.7654664,85.8874295 48.9498874,85.8874295 49.1496769,85.902703 C50.2715713,85.9637969 51.4088343,85.6430539 52.392413,84.9557474 L52.4846235,84.9557474 L53.1762023,85.9179765 C54.3903073,87.6591529 56.9107278,88.0715368 58.6627274,86.8649321 C60.1227271,85.8263356 60.7067269,83.7949631 60.045885,82.1759744 L60.1688323,82.3592562 C61.3214636,84.0546122 63.5037789,84.7877391 65.4094627,84.0087918 C67.5149359,83.153477 68.3601989,80.8930023 67.8069359,78.9532707 C69.2208303,80.5264389 71.6490403,80.8319084 73.4010399,79.6253037 L73.4932504,79.5336628 C75.24525,78.3270581 75.7524078,76.020763 74.8149343,74.1879457 C76.3364077,75.5778321 78.7646177,75.7916608 80.5166173,74.5850561 C82.5606168,73.1035287 83.0985114,70.2473884 81.6077749,68.2007424 L79.4254596,65.1002265 L84.1743007,59.6017745 C85.4191425,58.1507942 86.909879,56.928916 88.5696681,55.9666869 L90.9056676,54.6226208 L90.9056676,50.9875332 L87.6782999,52.805077 C85.8340898,53.8436735 84.1743007,55.1877395 82.7911431,56.7914547 L77.6888284,62.6717435 C76.1673551,61.2818571 73.7391451,61.0680284 71.9871455,62.2746331 C69.9431459,63.7561604 69.4052513,66.6123008 70.8959878,68.6589468 L70.9728299,68.857502 L70.8806194,68.857502 C69.4359881,67.8494524 67.4688307,67.7425381 65.9166205,68.7811346 L65.82441,68.8727754 C64.4566208,69.8197311 63.8111473,71.4692666 64.1031472,73.0729818 L63.6113579,73.4242718 C62.2435687,72.7064183 60.5530428,72.7064183 59.1852536,73.6533739 C57.9250433,74.5239622 57.2795698,76.0665834 57.3871487,77.4717433 L56.034728,78.3270581 C55.0204124,78.0826824 53.8831495,78.3117846 53.0071497,78.9074502 C51.9313605,79.6863976 51.3012553,80.9693697 51.3319922,82.1759744 L50.6557818,82.6036318 C50.2562029,82.9549218 49.595361,83.1076566 49.0420979,82.9854688 C48.4888349,82.8632809 47.9355719,82.5578114 47.5820983,82.0690601 C47.2286247,81.6719497 47.0749405,81.0151901 47.1978878,80.465345 C47.3208352,79.9154998 47.6282035,79.3656546 48.1199929,79.0143646 L55.4507281,73.5311861 C55.8349385,73.271537 56.0500964,72.9049735 56.0654648,72.4467692 C56.1115701,71.6067279 55.3892544,70.8888745 54.5593599,70.8888745 C54.2366231,70.8888745 53.97536,70.9652419 53.6987285,71.1179767 L41.9879942,79.5489363 C41.3117839,79.9765937 40.543363,80.2209693 39.7134684,80.083508 C38.8835739,79.9460467 38.1458898,79.5336628 37.7155741,78.8616298 C36.7473638,77.5939312 37.0393638,75.6541995 38.4071529,74.7072439 L52.3616761,64.8100304 C52.6690445,64.5351078 52.8842023,64.1532709 52.8842023,63.6492461 C52.8995708,62.8550253 52.2387288,62.1829923 51.4395711,62.1524453 C50.9785186,62.1371718 50.6096765,62.3051801 50.3023082,62.6564701 L36.6397849,72.4773162 C36.2555745,72.6453244 36.055785,72.920247 35.7637851,73.1798961 C34.1193644,74.2184926 31.6911544,73.9893904 30.8151546,72.8286061 C29.9391548,71.576181 30.1235758,69.8960984 31.2147335,68.8422285 L32.5825226,67.8952729 L47.7665193,57.600949 C48.1507297,57.3412998 48.3658876,56.9747364 48.381256,56.5165321 C48.4119928,56.0125073 48.1660981,55.5390295 47.7511509,55.2488334 C47.2132562,54.8669965 46.6753616,54.851723 46.1067302,55.1877395 L29.8469443,66.1693699 C29.7393654,66.3526516 29.5549444,66.429019 29.4473654,66.5206599 L27.8797868,67.6508972 C26.6042082,68.6131263 24.6524191,68.3229303 23.6995772,66.9635907 C22.7313669,65.6958921 23.0233669,63.7561604 24.391156,62.8092048 L55.0511492,40.3724662 C57.5100961,41.8081731 59.3235693,44.6948604 59.3235693,44.6948604 C62.3357792,54.0727756 66.0856731,54.149143 68.3601989,53.0189057 C69.5435671,52.4385135 70.0814617,51.0486271 69.6665144,49.7962019 C68.4677778,46.1763877 67.776199,39.1658615 67.776199,39.1658615 C66.9309361,37.3483177 64.2260946,35.439133 61.2138847,33.8812382 L71.0650404,34.033973 L74.1848292,33.9728791 L74.1848292,33.9728791 Z" id="Shape" sketch:type="MSShapeGroup"></path>
            <path d="M17.5516084,52.584019 L10.5516084,50.104019" id="Path-65" stroke="#D50000" sketch:type="MSShapeGroup"></path>
            <path d="M88.5,54.5 L92.5,52.5" id="Line" stroke="#D50000" stroke-width="2.5" stroke-linecap="square" sketch:type="MSShapeGroup"></path>
            <path d="M94.5,49.5 L87.5,53.5" id="Line" stroke="#D50000" stroke-linecap="square" sketch:type="MSShapeGroup"></path>
            <path d="M18.6766,30.3440988 L20.7732183,52.3805276 L7.13203742,49.2312128 L18.6766,30.3440988 L18.6766,30.3440988 Z" id="Triangle-1" stroke="#D50000" sketch:type="MSShapeGroup"></path>
            <path d="M51.9999987,2 C24.3899994,2 2,24.890625 2,53.1197917 C2,81.7916667 23.8749994,101.390625 51.9999987,127 C80.1249979,101.390625 101.999997,81.7916667 101.999997,53.1197917 C101.999997,24.890625 79.6099979,2 51.9999987,2 L51.9999987,2 Z M51.9999987,95.75 C29.9049993,95.75 11.9999997,77.09375 11.9999997,54.0833333 C11.9999997,31.0729167 29.9049993,12.4166667 51.9999987,12.4166667 C74.0949981,12.4166667 91.9999976,31.0729167 91.9999976,54.0833333 C91.9999976,77.09375 74.0949981,95.75 51.9999987,95.75 L51.9999987,95.75 Z" id="Shape" sketch:type="MSShapeGroup"></path>
        </g>
    </g>
</svg>